<svg width="40" height="37" viewBox="0 0 40 37" fill="none" xmlns="http://www.w3.org/2000/svg">
<g style="mix-blend-mode:luminosity">
<path d="M28.5182 12.4626C27.7923 10.7233 25.9983 8.91552 25.0396 8.1212C24.0809 7.32688 24.1905 6.6969 25.2313 6.95711C26.2722 7.21732 28.1347 8.95661 28.8195 8.44988C29.5042 7.94316 28.3127 5.17673 23.1497 3.75243C18.0961 2.35553 13.4809 4.56045 11.1116 6.68321C8.74231 8.80596 8.7834 9.87419 9.3449 9.90158C9.9064 9.94266 10.7007 8.55945 11.9881 7.35427C13.2891 6.16279 14.4806 5.60128 15.0147 5.91627C15.5625 6.23126 12.0702 8.10751 10.9609 10.1481C9.85162 12.1887 10.4131 13.1473 11.0294 13.6541C11.6457 14.1608 13.7 9.36746 17.7538 8.64162C21.8075 7.91577 24.3959 9.84679 25.7517 11.5724C27.1076 13.3117 27.1213 15.0647 28.1895 15.366C29.2577 15.6673 29.2714 14.2977 28.5182 12.4626Z" fill="#FFF5FA"/>
<path d="M4.27769 19.5157C4.27769 19.5157 2.89448 21.6247 1.703 24.4049C0.511516 27.185 -0.118461 28.9928 0.0184907 29.8966C0.155443 30.7868 1.34692 31.1155 2.10016 30.061C2.86709 29.0065 4.64747 24.6377 5.27744 23.6516C5.90742 22.6656 6.79761 21.8302 6.56479 20.31C6.33197 18.7898 5.30483 18.5296 4.27769 19.5157Z" fill="url(#paint0_linear_724_1330)"/>
<path d="M16.22 19.5157C16.22 19.5157 17.6032 21.6247 18.7947 24.4049C19.9862 27.185 20.6162 28.9928 20.4792 29.8966C20.3423 30.7868 19.1508 31.1155 18.3976 30.061C17.6443 29.0065 15.8503 24.6377 15.2203 23.6516C14.5903 22.6656 13.7001 21.8302 13.9329 20.31C14.1657 18.7898 15.1929 18.5296 16.22 19.5157Z" fill="url(#paint1_linear_724_1330)"/>
<path d="M6.93474 12.5721C6.93474 12.5721 5.42827 13.0378 5.59261 14.2566C5.75695 15.4755 6.89365 15.229 6.89365 15.229C6.89365 15.229 6.4828 16.1192 7.15386 16.4616C7.82492 16.8039 8.60555 16.2424 8.60555 16.2424C8.60555 16.2424 8.68772 17.1874 9.98876 17.1874C11.2898 17.1874 11.2213 16.1329 11.2213 16.1329C11.2213 16.1329 11.9609 16.982 12.6867 16.3383C13.4263 15.6946 12.7415 14.8318 12.7415 14.8318C12.7415 14.8318 13.5495 15.1879 13.9467 14.3251C14.3438 13.4623 12.8921 12.2297 12.8921 12.2297L6.93474 12.5721Z" fill="url(#paint2_linear_724_1330)"/>
<path d="M13.0697 13.3939C13.516 13.3939 13.8778 12.9279 13.8778 12.3531C13.8778 11.7783 13.516 11.3123 13.0697 11.3123C12.6235 11.3123 12.2617 11.7783 12.2617 12.3531C12.2617 12.9279 12.6235 13.3939 13.0697 13.3939Z" fill="url(#paint3_linear_724_1330)"/>
<path d="M13.0289 13.1611C13.3617 13.1611 13.6314 12.8177 13.6314 12.3941C13.6314 11.9706 13.3617 11.6272 13.0289 11.6272C12.6961 11.6272 12.4263 11.9706 12.4263 12.3941C12.4263 12.8177 12.6961 13.1611 13.0289 13.1611Z" fill="#6D2009"/>
<path d="M6.90714 13.3939C7.35339 13.3939 7.71515 12.9279 7.71515 12.3531C7.71515 11.7783 7.35339 11.3123 6.90714 11.3123C6.46088 11.3123 6.09912 11.7783 6.09912 12.3531C6.09912 12.9279 6.46088 13.3939 6.90714 13.3939Z" fill="url(#paint4_linear_724_1330)"/>
<path d="M7.003 13.1201C7.34337 13.1201 7.61929 12.7645 7.61929 12.3258C7.61929 11.8871 7.34337 11.5315 7.003 11.5315C6.66264 11.5315 6.38672 11.8871 6.38672 12.3258C6.38672 12.7645 6.66264 13.1201 7.003 13.1201Z" fill="#6D2009"/>
<path d="M10.8514 15.2703H9.23535V18.0504H10.8514V15.2703Z" fill="url(#paint5_linear_724_1330)"/>
<path d="M12.9606 12.2708C12.9606 14.2703 12.358 15.9001 10.0435 15.9001C7.90709 15.9001 7.12646 14.2703 7.12646 12.2708C7.12646 10.2713 8.42751 8.6416 10.0435 8.6416C11.6596 8.6416 12.9606 10.2713 12.9606 12.2708Z" fill="url(#paint6_linear_724_1330)"/>
<path d="M12.9606 11.9012C12.9606 13.9007 12.358 15.5304 10.0435 15.5304C7.90709 15.5304 7.12646 13.9007 7.12646 11.9012C7.12646 9.9017 8.42751 8.27197 10.0435 8.27197C11.6596 8.27197 12.9606 9.9017 12.9606 11.9012Z" fill="url(#paint7_linear_724_1330)"/>
<path d="M7.00321 11.6682C7.00321 11.6682 8.85206 10.9561 10.5092 10.9698C12.1663 10.9835 13.0017 11.408 13.0017 11.408L13.303 10.7507C13.303 10.7507 11.7144 9.76461 9.15336 10.1892C7.55102 10.4494 6.83887 10.8876 6.83887 10.8876L7.00321 11.6682Z" fill="#6D2009"/>
<path d="M6.56494 10.0249C6.56494 10.0249 6.6882 6.57373 9.86548 6.57373C13.0428 6.57373 13.3304 9.90166 13.3304 9.90166L6.56494 10.0249Z" fill="url(#paint8_linear_724_1330)"/>
<path d="M10.0163 11.6956L9.6054 13.4759C9.53692 13.7635 9.75605 14.0374 10.0436 14.0374C10.3449 14.0374 10.5641 13.7498 10.4819 13.4622L10.0163 11.6956Z" fill="url(#paint9_linear_724_1330)"/>
<path d="M6.68799 10.8877L7.2221 13.0789L7.56448 10.6001C7.56448 10.5864 6.92081 10.5727 6.68799 10.8877Z" fill="url(#paint10_linear_724_1330)"/>
<path d="M13.2347 10.9013L12.8375 13.0789L12.4951 10.6C12.4951 10.5863 13.0018 10.5863 13.2347 10.9013Z" fill="url(#paint11_linear_724_1330)"/>
<path d="M13.6176 10.7371C13.5491 10.874 13.4396 10.9699 13.33 11.0247C13.0424 11.189 12.2892 10.6275 10.1116 10.6275C7.92039 10.6275 6.78369 11.4082 6.44131 11.189C6.35914 11.1343 6.29066 11.0658 6.23588 10.9836C6.07154 10.7234 6.07154 10.3262 6.40022 9.98386C6.81108 9.53192 7.71496 8.71021 9.96097 8.71021C11.7961 8.71021 13.152 9.14845 13.508 9.80582C13.7271 10.2167 13.7271 10.5317 13.6176 10.7371Z" fill="url(#paint12_linear_724_1330)"/>
<path d="M13.618 10.7371C13.5496 10.8741 13.44 10.9699 13.3304 11.0247C13.0428 11.189 12.2896 10.6275 10.1121 10.6275C7.92084 10.6275 6.78414 11.4082 6.44176 11.189C6.35958 11.1343 6.29111 11.0658 6.23633 10.9836C6.8937 10.5728 8.0167 9.99756 9.97512 9.99756C11.5638 10.0113 12.8511 10.381 13.618 10.7371Z" fill="url(#paint13_linear_724_1330)"/>
<path d="M4.7707 19.7075C4.81178 19.3377 5.0446 19.0227 5.38698 18.8447C6.15391 18.4612 7.72886 17.8586 10.0023 17.8586C12.0702 17.8586 13.9876 18.2969 14.8777 18.6667C15.7269 19.009 16.1103 19.461 16.1377 19.954C16.3294 22.652 16.4116 31.0197 15.5899 31.6223C15.179 31.9236 12.8919 32.3071 10.2077 32.3071C7.52343 32.3071 5.20894 31.9921 4.97612 31.5675C4.41462 30.5815 4.4694 22.2685 4.7707 19.7075Z" fill="url(#paint14_linear_724_1330)"/>
<path d="M7.75641 17.927L8.03031 16.7356C8.0714 16.5301 8.24943 16.3932 8.45486 16.3795C8.78355 16.3521 9.33135 16.3247 9.98872 16.3247C10.6735 16.3247 11.2487 16.3521 11.5911 16.3658C11.7965 16.3795 11.9745 16.5164 12.0156 16.7219L12.3032 17.8997C12.358 18.1051 12.2621 18.3105 12.0841 18.4201C11.7143 18.6392 11.0022 18.9542 10.0983 18.9542C9.18071 18.9542 8.42747 18.6666 8.01662 18.4749C7.81119 18.3516 7.71532 18.1325 7.75641 17.927Z" fill="url(#paint15_linear_724_1330)"/>
<path d="M6.31839 31.362C6.30469 31.362 6.30469 31.362 6.29099 31.362C6.18143 31.3483 6.11296 31.2387 6.12665 31.1428C6.12665 31.1291 6.18143 30.595 6.03079 27.3904C5.86644 24.1035 5.72949 19.4745 5.72949 19.4335C5.72949 19.3239 5.81166 19.228 5.92122 19.228C6.03079 19.228 6.12665 19.3102 6.12665 19.4198C6.12665 19.4608 6.2636 24.0898 6.42795 27.3767C6.59229 30.6772 6.52381 31.1839 6.52381 31.2113C6.49642 31.2935 6.41425 31.362 6.31839 31.362Z" fill="#0D1748"/>
<path d="M14.3983 31.3621C14.3024 31.3621 14.2202 31.2936 14.2065 31.1977C14.2065 31.184 14.1381 30.6773 14.3024 27.3631C14.4667 24.0762 14.6037 19.461 14.6037 19.4062C14.6037 19.2966 14.6996 19.2007 14.8091 19.2144C14.9187 19.2144 15.0009 19.3103 15.0009 19.4199C15.0009 19.461 14.8639 24.0899 14.6996 27.3768C14.5352 30.5815 14.59 31.1156 14.6037 31.1293C14.6174 31.2388 14.5352 31.3347 14.4393 31.3484C14.412 31.3621 14.3983 31.3621 14.3983 31.3621Z" fill="#0D1748"/>
<path d="M8.7972 31.7727C8.68764 31.7727 8.60547 31.6769 8.60547 31.5673V19.4881C8.60547 19.3649 8.68764 19.2827 8.7972 19.2827C8.90676 19.2827 8.98893 19.3786 8.98893 19.4881V31.5673C9.00263 31.6769 8.90676 31.7727 8.7972 31.7727Z" fill="#0D1748"/>
<path d="M11.7962 31.7727C11.6867 31.7727 11.6045 31.6769 11.6045 31.5673V19.4881C11.6045 19.3649 11.6867 19.2827 11.7962 19.2827C11.9058 19.2827 11.988 19.3786 11.988 19.4881V31.5673C11.988 31.6769 11.9058 31.7727 11.7962 31.7727Z" fill="#0D1748"/>
<path d="M39.9811 28.6639C39.9126 29.1295 39.5565 29.4445 39.1183 29.4719C38.7348 29.4993 38.2966 29.3076 37.9405 28.8282C37.1873 27.7874 35.448 23.5145 34.8317 22.5421C34.325 21.7478 33.6539 21.0631 33.558 20.0359C33.5306 19.8031 33.5306 19.5566 33.5854 19.269C33.8182 17.7762 34.5989 17.1188 35.5164 18.2281C35.5164 18.2281 37.1873 20.57 38.3513 23.2954C39.5017 26.007 40.118 27.7874 39.9811 28.6639Z" fill="url(#paint16_linear_724_1330)"/>
<path d="M39.1184 29.472C38.7349 29.4994 38.2966 29.3077 37.9406 28.8284C37.1873 27.7875 35.448 23.5146 34.8318 22.5423C34.325 21.748 33.654 21.0632 33.5581 20.0361C33.6677 19.2417 34.1196 19.0911 35.3659 21.0358C35.3659 21.0358 37.7762 26.0483 38.8718 28.8147C38.9677 29.0475 39.0499 29.2666 39.1184 29.472Z" fill="url(#paint17_linear_724_1330)"/>
<path d="M20.1506 28.6639C20.2191 29.1295 20.5751 29.4445 21.0134 29.4719C21.3968 29.4993 21.8351 29.3076 22.1912 28.8282C22.9444 27.7874 24.6837 23.5145 25.3 22.5421C25.8067 21.7478 26.4778 21.0631 26.5736 20.0359C26.601 19.8031 26.601 19.5566 26.5462 19.269C26.3134 17.7762 25.5328 17.1188 24.6152 18.2281C24.6152 18.2281 22.9444 20.57 21.7803 23.2954C20.6299 26.007 20.0273 27.7874 20.1506 28.6639Z" fill="url(#paint18_linear_724_1330)"/>
<path d="M21.0132 29.472C21.3966 29.4994 21.8349 29.3077 22.191 28.8284C22.9442 27.7875 24.6835 23.5146 25.2998 22.5423C25.8065 21.748 26.4776 21.0632 26.5734 20.0361C26.4639 19.2417 26.0119 19.0911 24.7657 21.0358C24.7657 21.0358 22.3553 26.0483 21.2597 28.8147C21.1638 29.0475 21.0817 29.2666 21.0132 29.472Z" fill="url(#paint19_linear_724_1330)"/>
<path d="M26.8203 11.9833C26.8203 11.9833 25.9438 12.5859 26.0671 13.298C26.1903 13.9965 26.9846 14.5169 28.3542 14.873C29.7237 15.2427 31.9971 14.8456 32.8873 14.1471C33.7911 13.4487 33.5446 13.12 33.2159 12.6133C32.8873 12.1065 32.4901 11.7642 32.4901 11.7642L26.8203 11.9833Z" fill="url(#paint20_linear_724_1330)"/>
<path d="M35.1876 31.403C34.7768 31.7317 32.5307 32.1288 29.915 32.1288C27.2992 32.1288 25.0121 31.7865 24.7793 31.3482C24.5465 30.8963 24.4095 29.02 24.3684 26.8151C24.3273 24.9662 24.3547 22.8846 24.4095 21.2001C24.4506 20.1729 24.4917 19.2827 24.5601 18.6802C24.6012 18.283 24.8614 17.9954 25.1764 17.7626C26.0255 17.0915 27.4772 16.2561 29.6958 16.2561C31.7364 16.2561 33.4209 16.708 34.3385 17.2969C34.7768 17.5845 35.1739 17.9406 35.2013 18.4747C35.2424 19.0773 35.2972 19.9812 35.352 21.022C35.4478 22.7339 35.5574 24.843 35.5848 26.7055C35.6259 29.1022 35.5574 31.1154 35.1876 31.403Z" fill="url(#paint21_linear_724_1330)"/>
<path d="M26.464 16.9544C26.464 16.9544 25.2588 18.2418 27.765 18.7074C31.1614 19.3374 33.3527 17.0366 33.0924 16.9544C32.8322 16.8723 28.4498 16.119 26.464 16.9544Z" fill="url(#paint22_linear_724_1330)"/>
<path d="M32.723 12.6131C33.1617 12.6131 33.5174 12.1533 33.5174 11.586C33.5174 11.0187 33.1617 10.5588 32.723 10.5588C32.2843 10.5588 31.9287 11.0187 31.9287 11.586C31.9287 12.1533 32.2843 12.6131 32.723 12.6131Z" fill="url(#paint23_linear_724_1330)"/>
<path d="M32.5174 12.449C32.9334 12.449 33.2706 12.0627 33.2706 11.5862C33.2706 11.1097 32.9334 10.7234 32.5174 10.7234C32.1014 10.7234 31.7642 11.1097 31.7642 11.5862C31.7642 12.0627 32.1014 12.449 32.5174 12.449Z" fill="url(#paint24_linear_724_1330)"/>
<path d="M26.6693 12.6131C27.108 12.6131 27.4636 12.1533 27.4636 11.586C27.4636 11.0187 27.108 10.5588 26.6693 10.5588C26.2306 10.5588 25.875 11.0187 25.875 11.586C25.875 12.1533 26.2306 12.6131 26.6693 12.6131Z" fill="url(#paint25_linear_724_1330)"/>
<path d="M26.8063 12.449C27.1769 12.449 27.4774 12.0627 27.4774 11.5862C27.4774 11.1097 27.1769 10.7234 26.8063 10.7234C26.4357 10.7234 26.1353 11.1097 26.1353 11.5862C26.1353 12.0627 26.4357 12.449 26.8063 12.449Z" fill="url(#paint26_linear_724_1330)"/>
<path d="M30.5315 13.6951H28.9565V16.4204H30.5315V13.6951Z" fill="url(#paint27_linear_724_1330)"/>
<path d="M32.6131 11.4079C32.9555 14.0511 32.1475 14.9687 29.7508 14.9687C26.8201 14.9687 26.6146 13.4485 26.7516 11.4353C26.9159 8.80583 28.1759 7.84717 29.7508 7.84717C31.3258 7.84717 32.3529 9.4632 32.6131 11.4079Z" fill="url(#paint28_linear_724_1330)"/>
<path d="M32.6131 11.0107C32.9555 13.6539 32.1475 14.5715 29.7508 14.5715C26.8201 14.5715 26.6146 13.0513 26.7516 11.0381C26.9159 8.40861 28.1759 7.44995 29.7508 7.44995C31.3258 7.44995 32.3529 9.05229 32.6131 11.0107Z" fill="url(#paint29_linear_724_1330)"/>
<path d="M26.7515 10.819C26.7515 10.819 27.5459 10.7368 28.6141 10.4903C29.6823 10.2438 31.4353 10.3671 31.942 10.504C32.4487 10.6547 32.7226 10.5725 32.7226 10.5725L32.5583 9.92883C32.5583 9.92883 30.8327 9.4495 29.3262 9.57275C27.8335 9.68231 26.7104 10.1206 26.7104 10.1206L26.7515 10.819Z" fill="url(#paint30_linear_724_1330)"/>
<path d="M29.7098 10.9697L29.3674 12.4214C29.3126 12.6542 29.4907 12.8734 29.7235 12.8734C29.97 12.8734 30.148 12.6405 30.0796 12.4077L29.7098 10.9697Z" fill="url(#paint31_linear_724_1330)"/>
<path d="M26.5049 10.3535L26.6966 12.0928L27.2307 10.0796C27.2307 10.0796 26.724 10.0796 26.5049 10.3535Z" fill="url(#paint32_linear_724_1330)"/>
<path d="M33.0242 10.3535L32.6818 11.9832L32.2983 10.0796C32.2983 10.0796 32.7914 10.0796 33.0242 10.3535Z" fill="url(#paint33_linear_724_1330)"/>
<path d="M26.4232 16.7355L26.8203 15.5988C26.8888 15.4071 27.1353 15.2701 27.4229 15.2564C27.9023 15.229 28.6829 15.2017 29.6552 15.2017C30.6413 15.2017 31.4767 15.229 31.9834 15.2427C32.2847 15.2564 32.5312 15.3934 32.5997 15.5851L33.0106 16.6944C33.079 16.8862 32.9558 17.0779 32.6956 17.1875C32.1478 17.3929 31.1343 17.6942 29.8059 17.6942C28.4775 17.6942 27.3818 17.4203 26.7792 17.2285C26.5053 17.1464 26.3547 16.9409 26.4232 16.7355Z" fill="url(#paint34_linear_724_1330)"/>
<path d="M27.5325 15.4344C27.3408 15.3797 26.9984 17.0368 27.0942 17.0642C27.2723 17.1189 27.3134 16.9272 27.5051 16.2972C27.6831 15.6673 27.6557 15.4755 27.5325 15.4344Z" fill="url(#paint35_linear_724_1330)"/>
<path d="M28.5593 15.5577C28.3676 15.5303 28.3402 17.2422 28.436 17.2422C28.6278 17.2696 28.6278 17.0779 28.6962 16.4205C28.751 15.7631 28.6962 15.5714 28.5593 15.5577Z" fill="url(#paint36_linear_724_1330)"/>
<path d="M29.8742 15.6672C29.6824 15.6672 29.792 17.3517 29.8879 17.3654C30.0796 17.3791 30.0659 17.1874 30.0796 16.5163C30.0933 15.8453 30.0111 15.6672 29.8742 15.6672Z" fill="url(#paint37_linear_724_1330)"/>
<path d="M31.0792 15.585C30.8875 15.6124 31.2573 17.2695 31.3531 17.2558C31.5449 17.2284 31.5038 17.0504 31.4079 16.393C31.3121 15.7356 31.2025 15.5713 31.0792 15.585Z" fill="url(#paint38_linear_724_1330)"/>
<path d="M32.0654 15.5851C31.8737 15.6399 32.5036 17.2148 32.5995 17.1874C32.7775 17.1326 32.7091 16.9546 32.5173 16.3246C32.3256 15.7083 32.1886 15.5577 32.0654 15.5851Z" fill="url(#paint39_linear_724_1330)"/>
<path d="M32.2847 5.94364C31.778 5.62865 29.6004 4.66999 27.6968 5.73821C25.7658 6.82013 26.1629 9.34005 26.2177 9.53178C26.2725 9.72351 27.5735 8.84702 29.9291 8.9018C32.2984 8.95658 32.9558 9.28527 33.0379 9.14831C33.1201 9.01136 32.8051 8.25813 32.9831 7.80618C33.3529 6.9023 32.8325 6.28602 32.2847 5.94364Z" fill="url(#paint40_linear_724_1330)"/>
<path d="M35.585 26.7055C34.2977 27.0341 32.2708 27.4176 29.792 27.4176C27.6829 27.4176 25.7108 27.0889 24.3687 26.815C24.3687 26.6233 24.3687 26.4316 24.355 26.2398C24.3413 24.7881 24.355 23.2543 24.3824 21.8847C24.3824 21.6519 24.3961 21.4191 24.4098 21.2C25.5739 21.4054 27.4227 21.6245 29.9837 21.6245C32.3393 21.6245 34.1607 21.3232 35.3522 21.0356C35.3659 21.2685 35.3796 21.515 35.3933 21.7615C35.4618 23.1447 35.544 24.706 35.5713 26.1713C35.585 26.3357 35.585 26.5274 35.585 26.7055Z" fill="url(#paint41_linear_724_1330)"/>
<path d="M35.585 26.1577C34.2977 26.459 32.2845 26.8013 29.792 26.8013C27.6692 26.8013 25.6971 26.5 24.3687 26.2261C24.355 24.7744 24.3687 23.2406 24.396 21.8711C25.5601 22.0765 27.409 22.2956 29.9837 22.2956C32.3666 22.2956 34.1881 22.008 35.3933 21.7478C35.4755 23.131 35.5439 24.6923 35.585 26.1577Z" fill="url(#paint42_linear_724_1330)"/>
<path d="M33.4758 10.3124C33.3936 10.463 33.2977 10.5726 33.1882 10.6274C32.9006 10.7917 32.1747 10.107 29.9835 10.107C27.7786 10.107 26.6282 10.8739 26.2858 10.6548C26.1899 10.5863 26.1078 10.4767 26.053 10.3398C25.9023 9.99739 25.916 9.49067 26.2173 9.18938C26.6282 8.75113 27.5732 8.23071 29.8329 8.23071C31.6817 8.23071 33.0375 8.65526 33.4073 9.29894C33.6264 9.70979 33.599 10.0659 33.4758 10.3124Z" fill="url(#paint43_linear_724_1330)"/>
<path d="M33.476 10.3123C33.3938 10.463 33.298 10.5725 33.1884 10.6273C32.9008 10.7916 32.175 10.1069 29.9837 10.1069C27.7788 10.1069 26.6284 10.8738 26.286 10.6547C26.1902 10.5862 26.108 10.4766 26.0532 10.3397C26.5873 9.94254 27.6556 9.42212 29.8468 9.42212C31.5176 9.43581 32.846 9.84667 33.476 10.3123Z" fill="url(#paint44_linear_724_1330)"/>
<path d="M36.1055 16.4206C35.8453 16.4206 35.6262 16.2152 35.6125 15.955C35.5029 14.2841 35.1469 12.6681 34.5306 11.1205C34.4347 10.8603 34.558 10.5727 34.8045 10.4769C35.0647 10.381 35.3523 10.5043 35.4482 10.7508C36.0918 12.3942 36.4753 14.1198 36.5849 15.8865C36.5986 16.1604 36.3931 16.3932 36.1192 16.4069C36.1192 16.4206 36.1055 16.4206 36.1055 16.4206Z" fill="url(#paint45_linear_724_1330)"/>
<path d="M9.15316 4.75223C9.01621 4.75223 8.86556 4.69745 8.7697 4.5742C8.59166 4.36877 8.61905 4.05378 8.83817 3.87574C11.8648 1.36952 15.7132 0 19.6437 0C22.7251 0 25.7517 0.835408 28.3812 2.41035C28.614 2.54731 28.6962 2.8623 28.5456 3.09511C28.4086 3.32793 28.0936 3.4101 27.8608 3.25946C25.382 1.76668 22.5334 0.986053 19.63 0.986053C15.9186 0.986053 12.3031 2.2871 9.45446 4.64267C9.37228 4.71115 9.26272 4.75223 9.15316 4.75223Z" fill="url(#paint46_linear_724_1330)"/>
<path d="M3.18215 16.4752C3.16845 16.4752 3.16845 16.4752 3.15476 16.4752C2.88086 16.4616 2.67543 16.2287 2.68912 15.9548C2.79868 14.0512 3.23693 12.2023 3.96277 10.4494C4.07234 10.2028 4.35994 10.0796 4.60645 10.1892C4.85296 10.2987 4.97622 10.5863 4.86666 10.8328C4.1819 12.4763 3.77104 14.2292 3.67518 16.0096C3.66148 16.2835 3.44236 16.4752 3.18215 16.4752Z" fill="url(#paint47_linear_724_1330)"/>
<path d="M15.8089 24.4322C15.8089 24.4322 14.4257 26.5412 13.2342 29.3214C12.0428 32.1015 11.4128 33.9093 11.5497 34.8131C11.6867 35.7033 12.8782 36.032 13.6314 34.9775C14.3846 33.923 16.1787 29.5542 16.8087 28.5681C17.4387 27.5821 18.3289 26.7467 18.096 25.2265C17.8632 23.7063 16.8361 23.4461 15.8089 24.4322Z" fill="url(#paint48_linear_724_1330)"/>
<path d="M13.0286 35.1281C13.0559 35.0597 16.0278 28.1847 16.3565 27.9519C16.6852 27.719 17.1097 27.8286 16.6989 28.6914C16.288 29.5542 13.7544 34.7036 13.4942 35.0323C13.2477 35.3473 12.7957 35.717 13.0286 35.1281Z" fill="#F69241"/>
<path d="M25.9022 24.4322C25.9022 24.4322 27.2854 26.5412 28.4769 29.3214C29.6683 32.1015 30.2983 33.9093 30.1614 34.8131C30.0244 35.7033 28.8329 36.032 28.0797 34.9775C27.3265 33.923 25.5324 29.5542 24.9024 28.5681C24.2724 27.5821 23.3822 26.7467 23.6151 25.2265C23.8479 23.7063 24.875 23.4461 25.9022 24.4322Z" fill="url(#paint49_linear_724_1330)"/>
<path d="M28.6825 35.1281C28.6551 35.0597 25.6833 28.1847 25.3546 27.9519C25.0259 27.719 24.6013 27.8286 25.0122 28.6914C25.423 29.5542 27.9567 34.7036 28.2169 35.0323C28.4634 35.3473 28.9153 35.717 28.6825 35.1281Z" fill="#F69241"/>
<path d="M17.4799 17.4065C17.4799 17.4065 17.1375 18.3652 16.6308 19.1595C16.1241 19.9538 16.1651 20.4605 16.576 20.5975C16.9869 20.7344 17.4799 20.3784 17.4799 20.3784C17.4799 20.3784 17.206 21.474 17.8496 21.6383C18.4933 21.8027 18.7809 20.9946 18.7809 20.9946C18.7809 20.9946 18.7809 21.8163 19.5068 21.8163C20.2326 21.8163 20.5065 21.2275 20.5065 21.2275L20.6435 18.0776L17.4799 17.4065Z" fill="url(#paint50_linear_724_1330)"/>
<path d="M23.2725 17.4065C23.2725 17.4065 23.6149 18.3652 24.1216 19.1595C24.6283 19.9538 24.5872 20.4605 24.1764 20.5975C23.7655 20.7344 23.2725 20.3784 23.2725 20.3784C23.2725 20.3784 23.5464 21.474 22.9027 21.6383C22.259 21.8027 21.9714 20.9946 21.9714 20.9946C21.9714 20.9946 21.9714 21.8163 21.2456 21.8163C20.5197 21.8163 20.2458 21.2275 20.2458 21.2275L20.1089 18.0776L23.2725 17.4065Z" fill="url(#paint51_linear_724_1330)"/>
<path d="M23.4232 17.7763C23.8467 17.7763 24.1901 17.3348 24.1901 16.7903C24.1901 16.2457 23.8467 15.8042 23.4232 15.8042C22.9996 15.8042 22.6562 16.2457 22.6562 16.7903C22.6562 17.3348 22.9996 17.7763 23.4232 17.7763Z" fill="url(#paint52_linear_724_1330)"/>
<path d="M23.314 17.5846C23.6316 17.5846 23.8892 17.2534 23.8892 16.845C23.8892 16.4366 23.6316 16.1055 23.314 16.1055C22.9963 16.1055 22.7388 16.4366 22.7388 16.845C22.7388 17.2534 22.9963 17.5846 23.314 17.5846Z" fill="url(#paint53_linear_724_1330)"/>
<path d="M17.5755 17.7763C17.9991 17.7763 18.3425 17.3348 18.3425 16.7903C18.3425 16.2457 17.9991 15.8042 17.5755 15.8042C17.152 15.8042 16.8086 16.2457 16.8086 16.7903C16.8086 17.3348 17.152 17.7763 17.5755 17.7763Z" fill="url(#paint54_linear_724_1330)"/>
<path d="M17.6987 17.5846C18.0164 17.5846 18.2739 17.2534 18.2739 16.845C18.2739 16.4366 18.0164 16.1055 17.6987 16.1055C17.3811 16.1055 17.1235 16.4366 17.1235 16.845C17.1235 17.2534 17.3811 17.5846 17.6987 17.5846Z" fill="url(#paint55_linear_724_1330)"/>
<path d="M21.3553 19.8992H19.7393V22.6793H21.3553V19.8992Z" fill="url(#paint56_linear_724_1330)"/>
<path d="M21.3553 19.8992V20.5565C21.0951 20.6524 20.8349 20.7072 20.5473 20.7072C20.2597 20.7072 19.9995 20.6524 19.7393 20.5565V19.8992H21.3553Z" fill="url(#paint57_linear_724_1330)"/>
<path d="M20.5472 20.3511C22.075 20.3511 23.3136 18.806 23.3136 16.8999C23.3136 14.9939 22.075 13.4487 20.5472 13.4487C19.0193 13.4487 17.7808 14.9939 17.7808 16.8999C17.7808 18.806 19.0193 20.3511 20.5472 20.3511Z" fill="url(#paint58_linear_724_1330)"/>
<path d="M20.5472 20.0909C22.075 20.0909 23.3136 18.5457 23.3136 16.6397C23.3136 14.7336 22.075 13.1885 20.5472 13.1885C19.0193 13.1885 17.7808 14.7336 17.7808 16.6397C17.7808 18.5457 19.0193 20.0909 20.5472 20.0909Z" fill="url(#paint59_linear_724_1330)"/>
<path d="M17.9724 16.2287C17.9724 16.2287 18.082 16.8176 18.6572 16.7629C19.2324 16.7081 19.5063 16.4342 19.5063 16.4342C19.5063 16.4342 19.6159 16.845 20.3417 16.6259C21.0676 16.4068 21.4784 15.8727 21.4784 15.8727C21.4784 15.8727 22.0673 15.8727 22.5466 15.9822C23.026 16.0918 23.3821 16.2424 23.3821 16.2424L23.5464 15.7083C23.5464 15.7083 21.4099 15.3112 20.1637 15.4207C18.9174 15.5303 18.3285 15.6125 18.3285 15.6125L17.8081 15.9959L17.9724 16.2287Z" fill="url(#paint60_linear_724_1330)"/>
<path d="M18.1779 15.7496C18.1779 15.7496 18.0821 16.3522 18.534 16.4891C18.986 16.6261 19.6844 16.0509 19.6844 16.0509C19.6844 16.0509 19.5612 16.4891 20.0268 16.4343C20.9718 16.3385 21.4785 15.5031 21.4785 15.5031C21.4785 15.5031 19.5475 15.4072 18.9312 15.462C18.3149 15.5168 18.1779 15.7496 18.1779 15.7496Z" fill="url(#paint61_linear_724_1330)"/>
<path d="M20.5198 16.804L20.1912 18.2009C20.1364 18.42 20.3144 18.6391 20.5335 18.6391C20.7664 18.6391 20.9444 18.42 20.8759 18.1872L20.5198 16.804Z" fill="url(#paint62_linear_724_1330)"/>
<path d="M17.4932 15.7769L17.8629 17.6532L18.1916 15.5167C18.1916 15.5167 17.7123 15.503 17.4932 15.7769Z" fill="url(#paint63_linear_724_1330)"/>
<path d="M23.5742 15.7769L23.2045 17.6532L22.8758 15.5167C22.8621 15.5167 23.3551 15.503 23.5742 15.7769Z" fill="url(#paint64_linear_724_1330)"/>
<path d="M23.7797 15.5029H17.5484C17.5484 15.5029 17.4115 14.421 15.9735 14.4758C15.5626 14.4895 15.5763 13.75 16.083 12.9693C16.4391 12.4215 17.0554 11.86 17.9319 11.545C20.1368 10.7507 21.8487 11.6683 22.8485 12.9693C23.8756 14.2841 23.7797 15.5029 23.7797 15.5029Z" fill="url(#paint65_linear_724_1330)"/>
<path d="M17.4798 11.8326C17.1648 11.997 16.9731 12.2846 17.3839 12.353C17.7948 12.4215 19.2739 11.6409 20.7529 12.4215C22.232 13.2021 22.5196 13.3117 22.3416 12.6543C22.1636 12.0107 20.794 11.4492 19.9449 11.3259C19.0821 11.2027 18.4111 11.3533 17.4798 11.8326Z" fill="url(#paint66_linear_724_1330)"/>
<path d="M19.9999 15.5031H17.5484C17.5484 15.5031 17.4115 14.4212 15.9735 14.4759C15.5626 14.4896 15.5763 13.7501 16.083 12.9695C16.6993 12.8188 17.6717 12.7641 18.6304 13.5584C19.3562 14.1473 19.7671 14.8731 19.9999 15.5031Z" fill="url(#paint67_linear_724_1330)"/>
<path d="M24.1767 15.5442C24.1493 15.777 23.9986 15.9413 23.8343 16.0098C23.5604 16.1468 22.8482 15.6811 20.7529 15.6811C18.6575 15.6811 17.5619 16.3248 17.2332 16.1468C17.0826 16.0646 16.9867 15.9276 16.9593 15.777C16.9045 15.5853 16.9867 15.3524 17.2058 15.1607C17.603 14.7909 18.4521 14.1199 20.6159 14.1199C22.3689 14.1199 23.67 14.4759 24.0123 15.0238C24.1356 15.2155 24.1767 15.3935 24.1767 15.5442Z" fill="url(#paint68_linear_724_1330)"/>
<path d="M24.1768 15.544C24.1495 15.7768 23.9988 15.9411 23.8345 16.0096C23.5606 16.1465 22.8484 15.6809 20.753 15.6809C18.6577 15.6809 17.5621 16.3246 17.2334 16.1465C17.0827 16.0644 16.9869 15.9274 16.9595 15.7768C17.6305 15.4481 18.7398 15.1057 20.6709 15.1057C22.1636 15.1057 23.3962 15.2701 24.1768 15.544Z" fill="url(#paint69_linear_724_1330)"/>
<path d="M15.9729 24.5966C16.014 24.2405 16.2195 23.9255 16.5208 23.7612C17.1918 23.3914 18.575 22.7888 20.5471 22.7888C22.3549 22.7888 23.8751 23.0353 24.6694 23.3366C25.1076 23.501 25.4089 23.9255 25.4363 24.4185C25.6007 27.0617 26.1485 35.676 25.4226 36.2786C25.0666 36.5799 23.0671 36.9496 20.7252 36.9496C18.3833 36.9496 16.3564 36.6347 16.151 36.2375C15.6716 35.2377 15.7127 27.1028 15.9729 24.5966Z" fill="url(#paint70_linear_724_1330)"/>
<path d="M18.2603 22.5423L18.5342 21.3508C18.5753 21.1454 18.7533 21.0084 18.9588 20.9947C19.2875 20.9673 19.8353 20.9399 20.4926 20.9399C21.1774 20.9399 21.7526 20.9673 22.095 20.981C22.3004 20.9947 22.4784 21.1317 22.5195 21.3371L22.8071 22.5149C22.8619 22.7203 22.766 22.9257 22.588 23.0353C22.2182 23.2544 21.5061 23.5694 20.6022 23.5694C19.6846 23.5694 18.9314 23.2818 18.5205 23.0901C18.3151 22.9805 18.2192 22.7614 18.2603 22.5423Z" fill="url(#paint71_linear_724_1330)"/>
<path d="M19.1505 21.1317C19.0546 21.1454 18.8629 22.6793 18.9587 22.6793C19.0546 22.6793 19.2874 21.1043 19.1505 21.1317Z" fill="#EF6743"/>
<path d="M19.8492 21.118C19.7534 21.1454 19.6164 22.8984 19.7123 22.8847C19.8081 22.871 19.9999 21.0906 19.8492 21.118Z" fill="#EF6743"/>
<path d="M21.3007 21.1179C21.2048 21.1453 21.3144 22.9256 21.4103 22.9119C21.5198 22.8982 21.4377 21.0768 21.3007 21.1179Z" fill="#EF6743"/>
<path d="M21.9717 21.1315C21.8759 21.1726 22.0539 22.7065 22.1635 22.6791C22.273 22.6517 22.1087 21.0767 21.9717 21.1315Z" fill="#EF6743"/>
<path d="M20.5748 21.1178C20.4789 21.1452 20.5063 23.0215 20.6022 23.0078C20.7117 23.0078 20.7117 21.0767 20.5748 21.1178Z" fill="#EF6743"/>
<path d="M20.7255 23.2131C21.78 23.2131 22.6839 22.5831 22.6839 22.7064C22.6839 22.8296 21.6157 23.3364 20.5886 23.3364C19.5614 23.3364 18.233 22.8159 18.3152 22.6927C18.3973 22.5694 19.0136 23.2131 20.7255 23.2131Z" fill="#EF6743"/>
<path d="M19.3286 26.1578C19.3286 26.1578 19.5888 25.1169 19.2327 23.9802C18.863 22.8435 18.5891 22.5696 18.3562 22.597C18.1234 22.6107 16.2472 23.4598 15.85 23.6926C15.4529 23.9255 15.3844 24.9115 15.4255 25.5826C15.4529 26.24 15.3296 27.363 15.2337 28.4312C15.1379 29.4994 15.4392 30.2116 15.4392 30.2116C15.4392 30.2116 15.1105 30.8005 15.0557 31.855C15.0009 32.9232 14.9735 33.8819 15.5076 34.1695C16.0418 34.4571 17.5893 34.7173 18.5206 34.6351C19.4519 34.5666 19.4656 33.7723 19.5888 32.841C19.7121 31.9098 19.4929 30.6909 19.4929 30.6909C19.4929 30.6909 19.8079 30.28 19.7669 28.486C19.6847 26.6782 19.3286 26.1578 19.3286 26.1578Z" fill="url(#paint72_linear_724_1330)"/>
<path d="M21.8893 26.1578C21.8893 26.1578 21.6428 25.1169 21.9852 23.9802C22.3275 22.8435 22.6014 22.5696 22.8206 22.597C23.0397 22.6107 24.8475 23.2818 25.2172 23.5146C25.6007 23.7474 25.6418 24.9115 25.6144 25.5689C25.587 26.2263 25.6966 27.3493 25.7924 28.4175C25.8883 29.4857 25.587 30.1979 25.587 30.1979C25.587 30.1979 25.902 30.7868 25.9568 31.8413C25.9979 32.9095 26.0389 33.8682 25.5322 34.1558C25.0255 34.4434 23.5601 34.7036 22.6699 34.6214C21.7934 34.5529 21.7797 33.7586 21.6565 32.8273C21.5332 31.8961 21.7523 30.6772 21.7523 30.6772C21.7523 30.6772 21.451 30.2663 21.4921 28.4723C21.5469 26.6782 21.8893 26.1578 21.8893 26.1578Z" fill="url(#paint73_linear_724_1330)"/>
<path d="M16.124 35.402C16.124 35.4568 18.3563 36.0457 20.8215 36.0457C23.2866 36.0457 25.5737 35.4431 25.5737 35.3473C25.5737 35.2514 23.6016 35.9225 20.8215 35.9225C18.0413 35.9225 16.1514 35.224 16.124 35.402Z" fill="#EF6743"/>
<path d="M16.4253 35.5663C16.3842 35.58 16.4527 36.347 16.4937 36.347C16.5485 36.347 16.4937 35.5526 16.4253 35.5663Z" fill="#EF6743"/>
<path d="M17.3291 35.7856C17.288 35.7993 17.3565 36.5662 17.3976 36.5662C17.4386 36.5662 17.3976 35.7719 17.3291 35.7856Z" fill="#EF6743"/>
<path d="M18.3286 35.9499C18.2875 35.9636 18.356 36.7305 18.3971 36.7305C18.4381 36.7305 18.3971 35.9362 18.3286 35.9499Z" fill="#EF6743"/>
<path d="M19.3833 36.0729C19.3422 36.0866 19.4107 36.8536 19.4518 36.8536C19.4928 36.8536 19.4518 36.0456 19.3833 36.0729Z" fill="#EF6743"/>
<path d="M25.0532 35.5663C25.0943 35.58 25.0258 36.347 24.9848 36.347C24.93 36.347 24.9848 35.5526 25.0532 35.5663Z" fill="#EF6743"/>
<path d="M24.1492 35.7856C24.1903 35.7993 24.1218 36.5662 24.0808 36.5662C24.0397 36.5662 24.0944 35.7719 24.1492 35.7856Z" fill="#EF6743"/>
<path d="M23.1498 35.9499C23.1909 35.9636 23.1224 36.7305 23.0813 36.7305C23.0402 36.7305 23.0813 35.9362 23.1498 35.9499Z" fill="#EF6743"/>
<path d="M22.0951 36.0732C22.1362 36.0869 22.0677 36.8538 22.0266 36.8538C21.9856 36.8538 22.0266 36.0458 22.0951 36.0732Z" fill="#EF6743"/>
<path d="M20.6846 36.1142C20.6435 36.1279 20.6435 36.8948 20.6983 36.8948C20.753 36.8948 20.753 36.1005 20.6846 36.1142Z" fill="#EF6743"/>
<path d="M22.2455 26.1032C22.1086 26.2675 22.5331 26.336 23.3822 26.4455C24.2313 26.5551 25.3817 26.4181 25.2859 26.3223C25.19 26.2264 24.2176 26.3634 23.6287 26.2812C23.0398 26.199 22.3825 25.9388 22.2455 26.1032Z" fill="#A02168"/>
<path d="M23.533 30.6225C22.8346 30.7046 21.9855 30.6088 22.0129 30.7594C22.0402 30.9101 23.3413 30.9648 24.2589 30.732C25.1764 30.4992 25.5736 30.2801 25.3819 30.239C25.1901 30.1842 24.4643 30.4992 23.533 30.6225Z" fill="#A02168"/>
<path d="M18.8902 26.1032C19.0271 26.2675 18.6026 26.336 17.7535 26.4455C16.9044 26.5551 15.754 26.4181 15.8499 26.3223C15.9457 26.2264 16.9181 26.3634 17.507 26.2812C18.0959 26.199 18.7532 25.9388 18.8902 26.1032Z" fill="#A02168"/>
<path d="M17.603 30.6225C18.3015 30.7046 19.1506 30.6088 19.1232 30.7594C19.0958 30.9101 17.7947 30.9648 16.8772 30.732C15.9596 30.4992 15.5624 30.2801 15.7541 30.239C15.9322 30.1842 16.658 30.4992 17.603 30.6225Z" fill="#A02168"/>
<path d="M15.5211 25.8838C15.3431 26.1167 15.7951 26.5549 17.4385 26.3358C19.0819 26.1167 19.2873 25.7469 19.1504 25.5004C18.9997 25.2539 18.3971 25.5688 17.4111 25.7195C16.425 25.8564 15.6581 25.6921 15.5211 25.8838Z" fill="url(#paint74_linear_724_1330)"/>
<path d="M15.5214 29.6774C15.3022 29.8691 15.8638 30.4991 17.5209 30.6224C19.178 30.7456 19.4382 30.4854 19.3423 30.2115C19.2465 29.9376 18.3974 29.9376 17.4113 29.8828C16.4253 29.828 15.7131 29.513 15.5214 29.6774Z" fill="url(#paint75_linear_724_1330)"/>
<path d="M15.1786 33.6216C14.9595 33.8133 15.521 34.4433 17.1781 34.5666C18.8352 34.6898 19.0954 34.4296 18.9996 34.1557C18.9037 33.8818 18.0546 33.8818 17.0685 33.827C16.0825 33.7722 15.3566 33.4709 15.1786 33.6216Z" fill="#A02168"/>
<path d="M25.505 25.8838C25.683 26.1167 25.2311 26.5549 23.5877 26.3358C21.9443 26.1167 21.7388 25.7469 21.8758 25.5004C22.0264 25.2539 22.629 25.5688 23.6151 25.7195C24.5874 25.8564 25.3544 25.6921 25.505 25.8838Z" fill="url(#paint76_linear_724_1330)"/>
<path d="M25.4912 29.6774C25.7103 29.8691 25.1488 30.4991 23.4917 30.6224C21.8345 30.7456 21.5743 30.4854 21.6702 30.2115C21.7661 29.9376 22.6152 29.9376 23.6012 29.8828C24.601 29.828 25.3131 29.513 25.4912 29.6774Z" fill="url(#paint77_linear_724_1330)"/>
<path d="M25.8471 33.6216C26.0662 33.8133 25.5047 34.4433 23.8476 34.5666C22.1905 34.6898 21.9303 34.4296 22.0262 34.1557C22.122 33.8818 22.9711 33.8818 23.9572 33.827C24.9432 33.7722 25.6554 33.4709 25.8471 33.6216Z" fill="#A02168"/>
</g>
<defs>
<linearGradient id="paint0_linear_724_1330" x1="0.989973" y1="30.9086" x2="3.54174" y2="24.3778" gradientUnits="userSpaceOnUse">
<stop stop-color="#0D1748"/>
<stop offset="1" stop-color="#1B237E"/>
</linearGradient>
<linearGradient id="paint1_linear_724_1330" x1="17.2009" y1="35.2093" x2="17.2009" y2="18.0244" gradientUnits="userSpaceOnUse">
<stop stop-color="#0D1748"/>
<stop offset="1" stop-color="#1B237E"/>
</linearGradient>
<linearGradient id="paint2_linear_724_1330" x1="5.56908" y1="14.6996" x2="14.0179" y2="14.6996" gradientUnits="userSpaceOnUse">
<stop stop-color="#0D1748"/>
<stop offset="1" stop-color="#1B237E"/>
</linearGradient>
<linearGradient id="paint3_linear_724_1330" x1="13.0754" y1="9.74995" x2="13.0754" y2="18.6084" gradientUnits="userSpaceOnUse">
<stop stop-color="#74300C"/>
<stop offset="1" stop-color="#B34F27"/>
</linearGradient>
<linearGradient id="paint4_linear_724_1330" x1="6.91105" y1="9.74995" x2="6.91105" y2="18.6084" gradientUnits="userSpaceOnUse">
<stop stop-color="#74300C"/>
<stop offset="1" stop-color="#B34F27"/>
</linearGradient>
<linearGradient id="paint5_linear_724_1330" x1="10.043" y1="15.6336" x2="10.043" y2="17.5344" gradientUnits="userSpaceOnUse">
<stop stop-color="#74300C"/>
<stop offset="1" stop-color="#B34F27"/>
</linearGradient>
<linearGradient id="paint6_linear_724_1330" x1="10.0458" y1="16.0781" x2="10.0458" y2="12.9148" gradientUnits="userSpaceOnUse">
<stop stop-color="#74300C"/>
<stop offset="1" stop-color="#B34F27"/>
</linearGradient>
<linearGradient id="paint7_linear_724_1330" x1="10.0458" y1="8.02718" x2="10.0458" y2="14.3984" gradientUnits="userSpaceOnUse">
<stop stop-color="#74300C"/>
<stop offset="1" stop-color="#B34F27"/>
</linearGradient>
<linearGradient id="paint8_linear_724_1330" x1="9.94809" y1="6.94042" x2="9.94809" y2="10.5108" gradientUnits="userSpaceOnUse">
<stop stop-color="#F9B566"/>
<stop offset="1" stop-color="#F89E44"/>
</linearGradient>
<linearGradient id="paint9_linear_724_1330" x1="10.0386" y1="11.5268" x2="10.0386" y2="13.8628" gradientUnits="userSpaceOnUse">
<stop offset="0.00537634" stop-color="#F05C54"/>
<stop offset="1" stop-color="#EF635E"/>
</linearGradient>
<linearGradient id="paint10_linear_724_1330" x1="7.12619" y1="12.0883" x2="7.12619" y2="10.0004" gradientUnits="userSpaceOnUse">
<stop stop-color="#0D1748"/>
<stop offset="1" stop-color="#1B237E"/>
</linearGradient>
<linearGradient id="paint11_linear_724_1330" x1="12.8585" y1="12.0884" x2="12.8585" y2="10.0007" gradientUnits="userSpaceOnUse">
<stop stop-color="#0D1748"/>
<stop offset="1" stop-color="#1B237E"/>
</linearGradient>
<linearGradient id="paint12_linear_724_1330" x1="9.90533" y1="7.79997" x2="9.90533" y2="12.6302" gradientUnits="userSpaceOnUse">
<stop stop-color="#F9B566"/>
<stop offset="1" stop-color="#F89E44"/>
</linearGradient>
<linearGradient id="paint13_linear_724_1330" x1="9.92224" y1="7.92379" x2="9.92224" y2="10.0062" gradientUnits="userSpaceOnUse">
<stop stop-color="#F9B566"/>
<stop offset="1" stop-color="#F89E44"/>
</linearGradient>
<linearGradient id="paint14_linear_724_1330" x1="10.4093" y1="37.1183" x2="10.4093" y2="20.1903" gradientUnits="userSpaceOnUse">
<stop stop-color="#0D1748"/>
<stop offset="1" stop-color="#1B237E"/>
</linearGradient>
<linearGradient id="paint15_linear_724_1330" x1="10.0279" y1="20.0627" x2="10.0279" y2="16.4904" gradientUnits="userSpaceOnUse">
<stop stop-color="#0D1748"/>
<stop offset="1" stop-color="#1B237E"/>
</linearGradient>
<linearGradient id="paint16_linear_724_1330" x1="36.7626" y1="32.0098" x2="36.7626" y2="21.4845" gradientUnits="userSpaceOnUse">
<stop stop-color="#EB4826"/>
<stop offset="1" stop-color="#EF6844"/>
</linearGradient>
<linearGradient id="paint17_linear_724_1330" x1="35.971" y1="27.2583" x2="35.5385" y2="30.2858" gradientUnits="userSpaceOnUse">
<stop stop-color="#EB4826"/>
<stop offset="1" stop-color="#EF6844"/>
</linearGradient>
<linearGradient id="paint18_linear_724_1330" x1="23.3695" y1="32.0098" x2="23.3695" y2="21.4845" gradientUnits="userSpaceOnUse">
<stop stop-color="#EB4826"/>
<stop offset="1" stop-color="#EF6844"/>
</linearGradient>
<linearGradient id="paint19_linear_724_1330" x1="24.161" y1="27.2583" x2="24.5935" y2="30.2858" gradientUnits="userSpaceOnUse">
<stop stop-color="#EB4826"/>
<stop offset="1" stop-color="#EF6844"/>
</linearGradient>
<linearGradient id="paint20_linear_724_1330" x1="26.048" y1="13.3858" x2="33.5137" y2="13.3858" gradientUnits="userSpaceOnUse">
<stop offset="0.00537634" stop-color="#6A0F35"/>
<stop offset="1" stop-color="#782843"/>
</linearGradient>
<linearGradient id="paint21_linear_724_1330" x1="29.9766" y1="29.1584" x2="29.9766" y2="20.6983" gradientUnits="userSpaceOnUse">
<stop stop-color="#EB4826"/>
<stop offset="1" stop-color="#EF6844"/>
</linearGradient>
<linearGradient id="paint22_linear_724_1330" x1="29.475" y1="18.4745" x2="29.3558" y2="19.3092" gradientUnits="userSpaceOnUse">
<stop stop-color="#EB4826"/>
<stop offset="1" stop-color="#EF6844"/>
</linearGradient>
<linearGradient id="paint23_linear_724_1330" x1="32.7177" y1="10.6013" x2="32.7177" y2="12.7733" gradientUnits="userSpaceOnUse">
<stop stop-color="#F17B7D"/>
<stop offset="1" stop-color="#F6AFAB"/>
</linearGradient>
<linearGradient id="paint24_linear_724_1330" x1="32.5156" y1="10.7628" x2="32.5156" y2="12.579" gradientUnits="userSpaceOnUse">
<stop offset="0.00537634" stop-color="#F05C54"/>
<stop offset="1" stop-color="#EF635E"/>
</linearGradient>
<linearGradient id="paint25_linear_724_1330" x1="26.6719" y1="10.6013" x2="26.6719" y2="12.7733" gradientUnits="userSpaceOnUse">
<stop stop-color="#F17B7D"/>
<stop offset="1" stop-color="#F6AFAB"/>
</linearGradient>
<linearGradient id="paint26_linear_724_1330" x1="26.8017" y1="10.7539" x2="26.8017" y2="12.5897" gradientUnits="userSpaceOnUse">
<stop offset="0.00537634" stop-color="#F05C54"/>
<stop offset="1" stop-color="#EF635E"/>
</linearGradient>
<linearGradient id="paint27_linear_724_1330" x1="29.7433" y1="14.9934" x2="29.7433" y2="15.9524" gradientUnits="userSpaceOnUse">
<stop offset="0.00537634" stop-color="#F05C54"/>
<stop offset="1" stop-color="#EF635E"/>
</linearGradient>
<linearGradient id="paint28_linear_724_1330" x1="29.6981" y1="14.247" x2="29.6981" y2="11.4067" gradientUnits="userSpaceOnUse">
<stop stop-color="#F17B7D"/>
<stop offset="1" stop-color="#F6AFAB"/>
</linearGradient>
<linearGradient id="paint29_linear_724_1330" x1="29.6981" y1="7.2317" x2="29.6981" y2="13.199" gradientUnits="userSpaceOnUse">
<stop stop-color="#F17B7D"/>
<stop offset="1" stop-color="#F6AFAB"/>
</linearGradient>
<linearGradient id="paint30_linear_724_1330" x1="29.7131" y1="9.56847" x2="29.7131" y2="10.9169" gradientUnits="userSpaceOnUse">
<stop offset="0.00537634" stop-color="#F05C54"/>
<stop offset="1" stop-color="#EF635E"/>
</linearGradient>
<linearGradient id="paint31_linear_724_1330" x1="29.3682" y1="11.919" x2="30.1093" y2="11.919" gradientUnits="userSpaceOnUse">
<stop offset="0.00537634" stop-color="#F05C54"/>
<stop offset="1" stop-color="#EF635E"/>
</linearGradient>
<linearGradient id="paint32_linear_724_1330" x1="26.4999" y1="11.091" x2="27.2257" y2="11.091" gradientUnits="userSpaceOnUse">
<stop offset="0.00537634" stop-color="#6A0F35"/>
<stop offset="1" stop-color="#782843"/>
</linearGradient>
<linearGradient id="paint33_linear_724_1330" x1="32.2928" y1="11.0334" x2="33.0185" y2="11.0334" gradientUnits="userSpaceOnUse">
<stop offset="0.00537634" stop-color="#6A0F35"/>
<stop offset="1" stop-color="#782843"/>
</linearGradient>
<linearGradient id="paint34_linear_724_1330" x1="29.7287" y1="18.5515" x2="29.7287" y2="15.688" gradientUnits="userSpaceOnUse">
<stop stop-color="#EB4826"/>
<stop offset="1" stop-color="#EF6844"/>
</linearGradient>
<linearGradient id="paint35_linear_724_1330" x1="27.2849" y1="16.7733" x2="27.2055" y2="17.329" gradientUnits="userSpaceOnUse">
<stop stop-color="#EB4826"/>
<stop offset="1" stop-color="#EF6844"/>
</linearGradient>
<linearGradient id="paint36_linear_724_1330" x1="28.5705" y1="16.9182" x2="28.5978" y2="17.4789" gradientUnits="userSpaceOnUse">
<stop stop-color="#EB4826"/>
<stop offset="1" stop-color="#EF6844"/>
</linearGradient>
<linearGradient id="paint37_linear_724_1330" x1="30.0018" y1="17.0216" x2="30.0732" y2="17.5785" gradientUnits="userSpaceOnUse">
<stop stop-color="#EB4826"/>
<stop offset="1" stop-color="#EF6844"/>
</linearGradient>
<linearGradient id="paint38_linear_724_1330" x1="31.409" y1="16.9069" x2="31.5674" y2="17.4455" gradientUnits="userSpaceOnUse">
<stop stop-color="#EB4826"/>
<stop offset="1" stop-color="#EF6844"/>
</linearGradient>
<linearGradient id="paint39_linear_724_1330" x1="32.5995" y1="16.8411" x2="32.8387" y2="17.349" gradientUnits="userSpaceOnUse">
<stop stop-color="#EB4826"/>
<stop offset="1" stop-color="#EF6844"/>
</linearGradient>
<linearGradient id="paint40_linear_724_1330" x1="30.3539" y1="9.61421" x2="28.8708" y2="6.64792" gradientUnits="userSpaceOnUse">
<stop stop-color="#B22878"/>
<stop offset="1" stop-color="#C04A99"/>
</linearGradient>
<linearGradient id="paint41_linear_724_1330" x1="29.9721" y1="13.8427" x2="29.9721" y2="23.4756" gradientUnits="userSpaceOnUse">
<stop stop-color="#F9B566"/>
<stop offset="1" stop-color="#F89E44"/>
</linearGradient>
<linearGradient id="paint42_linear_724_1330" x1="29.9668" y1="25.5279" x2="29.9668" y2="19.4327" gradientUnits="userSpaceOnUse">
<stop offset="0.00537634" stop-color="#6A0F35"/>
<stop offset="1" stop-color="#782843"/>
</linearGradient>
<linearGradient id="paint43_linear_724_1330" x1="29.755" y1="11.4942" x2="29.755" y2="8.47768" gradientUnits="userSpaceOnUse">
<stop stop-color="#B22878"/>
<stop offset="1" stop-color="#C04A99"/>
</linearGradient>
<linearGradient id="paint44_linear_724_1330" x1="29.7557" y1="9.69853" x2="29.7557" y2="7.4918" gradientUnits="userSpaceOnUse">
<stop stop-color="#B22878"/>
<stop offset="1" stop-color="#C04A99"/>
</linearGradient>
<linearGradient id="paint45_linear_724_1330" x1="34.4976" y1="13.4355" x2="36.5979" y2="13.4355" gradientUnits="userSpaceOnUse">
<stop stop-color="#DDDCFE"/>
<stop offset="1" stop-color="#B1AFE9"/>
</linearGradient>
<linearGradient id="paint46_linear_724_1330" x1="8.65131" y1="2.37412" x2="28.6196" y2="2.37412" gradientUnits="userSpaceOnUse">
<stop stop-color="#DDDCFE"/>
<stop offset="1" stop-color="#B1AFE9"/>
</linearGradient>
<linearGradient id="paint47_linear_724_1330" x1="2.68159" y1="13.3138" x2="4.90647" y2="13.3138" gradientUnits="userSpaceOnUse">
<stop stop-color="#DDDCFE"/>
<stop offset="1" stop-color="#B1AFE9"/>
</linearGradient>
<linearGradient id="paint48_linear_724_1330" x1="14.8337" y1="29.3837" x2="14.8337" y2="41.3051" gradientUnits="userSpaceOnUse">
<stop stop-color="#F9B566"/>
<stop offset="1" stop-color="#F89E44"/>
</linearGradient>
<linearGradient id="paint49_linear_724_1330" x1="26.8815" y1="29.3837" x2="26.8815" y2="41.3051" gradientUnits="userSpaceOnUse">
<stop stop-color="#F9B566"/>
<stop offset="1" stop-color="#F89E44"/>
</linearGradient>
<linearGradient id="paint50_linear_724_1330" x1="18.4566" y1="21.4177" x2="18.4566" y2="18.0734" gradientUnits="userSpaceOnUse">
<stop offset="0.00537634" stop-color="#6A0F35"/>
<stop offset="1" stop-color="#782843"/>
</linearGradient>
<linearGradient id="paint51_linear_724_1330" x1="22.2967" y1="21.4177" x2="22.2967" y2="18.0734" gradientUnits="userSpaceOnUse">
<stop offset="0.00537634" stop-color="#6A0F35"/>
<stop offset="1" stop-color="#782843"/>
</linearGradient>
<linearGradient id="paint52_linear_724_1330" x1="23.4256" y1="14.3856" x2="23.4256" y2="19.8228" gradientUnits="userSpaceOnUse">
<stop stop-color="#F17B7D"/>
<stop offset="1" stop-color="#F6AFAB"/>
</linearGradient>
<linearGradient id="paint53_linear_724_1330" x1="23.3119" y1="15.0546" x2="23.3119" y2="19.108" gradientUnits="userSpaceOnUse">
<stop offset="0.00537634" stop-color="#F05C54"/>
<stop offset="1" stop-color="#EF635E"/>
</linearGradient>
<linearGradient id="paint54_linear_724_1330" x1="17.5753" y1="14.3856" x2="17.5753" y2="19.8228" gradientUnits="userSpaceOnUse">
<stop stop-color="#F17B7D"/>
<stop offset="1" stop-color="#F6AFAB"/>
</linearGradient>
<linearGradient id="paint55_linear_724_1330" x1="17.7" y1="15.0546" x2="17.7" y2="19.108" gradientUnits="userSpaceOnUse">
<stop offset="0.00537634" stop-color="#F05C54"/>
<stop offset="1" stop-color="#EF635E"/>
</linearGradient>
<linearGradient id="paint56_linear_724_1330" x1="20.5515" y1="20.1971" x2="20.5515" y2="22.7341" gradientUnits="userSpaceOnUse">
<stop stop-color="#F17B7D"/>
<stop offset="1" stop-color="#F6AFAB"/>
</linearGradient>
<linearGradient id="paint57_linear_724_1330" x1="20.5515" y1="19.946" x2="20.5515" y2="20.3592" gradientUnits="userSpaceOnUse">
<stop offset="0.00537634" stop-color="#F05C54"/>
<stop offset="1" stop-color="#EF635E"/>
</linearGradient>
<linearGradient id="paint58_linear_724_1330" x1="20.5499" y1="19.9707" x2="20.5499" y2="16.4225" gradientUnits="userSpaceOnUse">
<stop stop-color="#F17B7D"/>
<stop offset="1" stop-color="#F6AFAB"/>
</linearGradient>
<linearGradient id="paint59_linear_724_1330" x1="20.5499" y1="13.5891" x2="20.5499" y2="17.1362" gradientUnits="userSpaceOnUse">
<stop stop-color="#F17B7D"/>
<stop offset="1" stop-color="#F6AFAB"/>
</linearGradient>
<linearGradient id="paint60_linear_724_1330" x1="20.6669" y1="16.6937" x2="20.6876" y2="15.2957" gradientUnits="userSpaceOnUse">
<stop offset="0.00537634" stop-color="#F05C54"/>
<stop offset="1" stop-color="#EF635E"/>
</linearGradient>
<linearGradient id="paint61_linear_724_1330" x1="19.8271" y1="16.4076" x2="19.8271" y2="15.6006" gradientUnits="userSpaceOnUse">
<stop offset="0.00537634" stop-color="#6A0F35"/>
<stop offset="1" stop-color="#782843"/>
</linearGradient>
<linearGradient id="paint62_linear_724_1330" x1="20.1844" y1="17.7234" x2="20.9016" y2="17.7234" gradientUnits="userSpaceOnUse">
<stop offset="0.00537634" stop-color="#F05C54"/>
<stop offset="1" stop-color="#EF635E"/>
</linearGradient>
<linearGradient id="paint63_linear_724_1330" x1="17.8436" y1="17.4019" x2="17.8436" y2="15.2683" gradientUnits="userSpaceOnUse">
<stop offset="0.00537634" stop-color="#6A0F35"/>
<stop offset="1" stop-color="#782843"/>
</linearGradient>
<linearGradient id="paint64_linear_724_1330" x1="23.2196" y1="17.4019" x2="23.2196" y2="15.2683" gradientUnits="userSpaceOnUse">
<stop offset="0.00537634" stop-color="#6A0F35"/>
<stop offset="1" stop-color="#782843"/>
</linearGradient>
<linearGradient id="paint65_linear_724_1330" x1="19.74" y1="20.1827" x2="19.74" y2="11.3039" gradientUnits="userSpaceOnUse">
<stop stop-color="#EB4826"/>
<stop offset="1" stop-color="#EF6844"/>
</linearGradient>
<linearGradient id="paint66_linear_724_1330" x1="19.766" y1="11.3851" x2="19.766" y2="12.3078" gradientUnits="userSpaceOnUse">
<stop stop-color="#F5A949"/>
<stop offset="1" stop-color="#EF6844"/>
</linearGradient>
<linearGradient id="paint67_linear_724_1330" x1="17.8511" y1="13.798" x2="17.8511" y2="17.7013" gradientUnits="userSpaceOnUse">
<stop stop-color="#EB4826"/>
<stop offset="1" stop-color="#EF6844"/>
</linearGradient>
<linearGradient id="paint68_linear_724_1330" x1="20.5551" y1="16.7054" x2="20.5551" y2="14.6802" gradientUnits="userSpaceOnUse">
<stop stop-color="#EB4826"/>
<stop offset="1" stop-color="#EF6844"/>
</linearGradient>
<linearGradient id="paint69_linear_724_1330" x1="20.5623" y1="15.2779" x2="20.5623" y2="13.2621" gradientUnits="userSpaceOnUse">
<stop stop-color="#EB4826"/>
<stop offset="1" stop-color="#EF6844"/>
</linearGradient>
<linearGradient id="paint70_linear_724_1330" x1="20.788" y1="21.2526" x2="20.788" y2="42.8819" gradientUnits="userSpaceOnUse">
<stop stop-color="#F9B566"/>
<stop offset="1" stop-color="#F89E44"/>
</linearGradient>
<linearGradient id="paint71_linear_724_1330" x1="20.5349" y1="21.2525" x2="20.5349" y2="38.1181" gradientUnits="userSpaceOnUse">
<stop stop-color="#F9B566"/>
<stop offset="1" stop-color="#F89E44"/>
</linearGradient>
<linearGradient id="paint72_linear_724_1330" x1="17.383" y1="37.7132" x2="17.383" y2="26.2719" gradientUnits="userSpaceOnUse">
<stop stop-color="#B22878"/>
<stop offset="1" stop-color="#C04A99"/>
</linearGradient>
<linearGradient id="paint73_linear_724_1330" x1="23.7408" y1="37.7132" x2="23.7408" y2="26.2719" gradientUnits="userSpaceOnUse">
<stop stop-color="#B22878"/>
<stop offset="1" stop-color="#C04A99"/>
</linearGradient>
<linearGradient id="paint74_linear_724_1330" x1="17.404" y1="26.1862" x2="17.0786" y2="24.4291" gradientUnits="userSpaceOnUse">
<stop stop-color="#B22878"/>
<stop offset="1" stop-color="#C04A99"/>
</linearGradient>
<linearGradient id="paint75_linear_724_1330" x1="17.4139" y1="30.4458" x2="17.4535" y2="28.4151" gradientUnits="userSpaceOnUse">
<stop stop-color="#B22878"/>
<stop offset="1" stop-color="#C04A99"/>
</linearGradient>
<linearGradient id="paint76_linear_724_1330" x1="23.6175" y1="26.1862" x2="23.9429" y2="24.4291" gradientUnits="userSpaceOnUse">
<stop stop-color="#B22878"/>
<stop offset="1" stop-color="#C04A99"/>
</linearGradient>
<linearGradient id="paint77_linear_724_1330" x1="23.603" y1="30.4471" x2="23.5634" y2="28.4164" gradientUnits="userSpaceOnUse">
<stop stop-color="#B22878"/>
<stop offset="1" stop-color="#C04A99"/>
</linearGradient>
</defs>
</svg>
