<svg width="50" height="30" viewBox="0 0 50 30" fill="none" xmlns="http://www.w3.org/2000/svg">
<g style="mix-blend-mode:luminosity">
<path d="M24.4814 29.2999C34.7127 29.2999 43.0068 28.963 43.0068 28.5473C43.0068 28.1316 34.7127 27.7947 24.4814 27.7947C14.2501 27.7947 5.95605 28.1316 5.95605 28.5473C5.95605 28.963 14.2501 29.2999 24.4814 29.2999Z" fill="url(#paint0_linear_724_2109)"/>
<path d="M34.8342 24.262C38.8092 23.2329 42.0575 20.8214 43.956 18.287C45.8397 15.7526 45.9287 14.232 45.1574 13.9248C44.3861 13.6176 43.4369 15.6605 41.8498 17.1043C40.248 18.5481 39.8771 18.4252 39.9661 17.7187C40.0551 17.0121 40.5891 16.7817 41.2269 15.8909C41.8647 15 41.1082 14.0016 40.3369 14.5392C39.5657 15.0921 38.8241 16.367 37.0442 17.3961C35.2792 18.4252 32.9357 19.2547 28.842 19.9919C24.7483 20.7292 23.8288 19.3007 23.5321 20.4067C23.2355 21.5126 24.7632 22.0809 26.3057 22.0502C27.8483 22.0194 28.1597 21.9273 28.1894 22.4342C28.2191 22.941 26.4837 23.1561 24.2589 23.1561C22.0341 23.1561 21.8116 23.5401 21.9006 24.3081C21.9747 25.0761 26.2761 26.4738 34.8342 24.262Z" fill="#FFF5FA"/>
<path d="M48.1827 9.88522C47.6043 9.53194 46.7885 10.8836 46.3584 11.7745C45.9283 12.6807 45.7799 13.3105 46.1062 13.5409C46.4177 13.7713 47.0258 13.6023 47.8564 12.3889C48.6722 11.1601 48.8205 10.2692 48.1827 9.88522Z" fill="#FFF5FA"/>
<path d="M42.5618 11.4364C42.0426 12.2812 41.3604 13.2335 41.657 13.5714C41.9536 13.9093 42.8436 13.6175 43.6742 12.2966C44.5048 10.9603 44.8904 9.83898 44.4009 9.42427C43.9115 9.00955 43.3034 10.223 42.5618 11.4364Z" fill="#FFF5FA"/>
<path d="M26.4389 14.4471C28.0111 14.4778 29.5388 14.4471 33.0986 13.1108C36.1985 11.9434 36.7769 11.1294 37.6075 11.1754C38.4381 11.2215 39.0907 12.435 38.542 13.418C37.9932 14.401 35.442 15.5223 32.3718 16.3978C29.3015 17.2733 27.0619 17.688 25.6676 17.1351C24.3921 16.6282 23.9768 14.401 26.4389 14.4471Z" fill="#FFF5FA"/>
<path d="M27.9664 10.6838C29.598 10.1769 30.6807 9.08635 31.452 8.14939C32.2233 7.19708 32.6831 7.35068 32.9204 7.81148C33.1577 8.27228 33.4247 9.62394 31.9118 11.0371C30.8439 12.0354 30.4582 11.9279 30.8142 12.4041C31.1702 12.8956 32.5051 12.4041 33.6471 10.9295C34.7892 9.45498 35.5753 7.04348 36.0055 6.38301C36.4356 5.72254 37.5925 5.8915 37.6815 7.35068C37.7705 8.80987 36.7619 11.59 34.9375 13.1874C33.1132 14.7849 30.4582 15.7986 28.4262 16.0444C26.4091 16.2901 26.1124 15.9522 25.7861 15.2457C25.4746 14.5391 26.3794 14.0476 27.0617 13.9861C27.7439 13.9247 27.7884 13.5714 27.6253 13.2642C27.4621 12.957 25.9493 13.5253 24.7182 13.4025C23.4871 13.2642 22.7158 13.1414 22.7307 12.0969C22.7455 11.0524 23.413 10.8834 24.8962 10.9756C26.3794 11.037 26.676 11.0831 27.9664 10.6838Z" fill="#FFF5FA"/>
<path d="M16.6792 10.3151C18.2811 10.8834 19.2007 10.7298 20.2983 10.4073C21.3959 10.0847 21.7222 10.4994 21.6925 11.037C21.6628 11.5746 21.2475 12.8649 19.2897 13.1106C17.9251 13.2949 17.6433 12.957 17.7027 13.5868C17.762 14.2012 19.1117 14.6159 20.7729 14.0783C22.4341 13.5407 24.2585 12.0201 24.9407 11.7282C25.623 11.4364 26.4981 12.2965 25.8603 13.5561C25.2226 14.8156 23.0422 16.5205 20.7432 16.7355C18.4443 16.9506 15.7448 16.1672 13.9353 15.1381C12.1258 14.109 11.6956 13.1874 12.0071 12.4809C12.3334 11.7589 13.1937 12.2197 13.8018 12.5884C14.4099 12.957 14.6176 12.6805 14.6324 12.3273C14.6472 11.974 13.1047 11.5286 12.1406 10.653C11.1765 9.77753 10.5684 8.88666 11.0875 8.04186C11.6066 7.18171 12.1999 7.90362 13.4607 8.73306C14.7511 9.57785 15.4037 9.85433 16.6792 10.3151Z" fill="#FFF5FA"/>
<path d="M38.7941 2.37417C38.4382 2.26665 37.9932 2.77353 37.919 3.2804C37.8449 3.78728 37.9784 4.18664 38.364 4.32487C38.7496 4.46311 39.0611 4.18664 39.2688 3.5876C39.4764 3.00393 39.3578 2.55849 38.7941 2.37417Z" fill="#FFF5FA"/>
<path d="M27.4917 6.19879C26.3941 6.61351 25.7119 6.50599 25.5487 7.07431C25.3856 7.64262 25.6229 8.48741 27.2099 8.0727C28.7969 7.65798 30.4285 6.93607 30.117 5.79944C29.8055 4.67817 28.8563 5.67656 27.4917 6.19879Z" fill="#FFF5FA"/>
<path d="M21.1587 6.56742C20.9214 6.85926 20.9807 7.55046 22.3749 7.88837C23.7691 8.22629 24.2883 7.98053 24.3328 7.47366C24.3624 6.95142 23.9026 6.67494 23.0127 6.4599C21.9448 6.18343 21.4998 6.15271 21.1587 6.56742Z" fill="#FFF5FA"/>
<path d="M16.1899 4.4478C15.4483 4.10989 14.3211 3.29581 13.7723 2.97326C13.2087 2.66606 12.912 3.11149 12.9565 3.61837C13.001 4.12524 13.5795 4.77036 14.7809 5.49227C15.9823 6.21419 18.0439 6.9361 18.6817 6.96682C19.3195 6.99754 19.4678 6.7057 19.4382 6.15275C19.3788 5.61515 17.6435 5.12364 16.1899 4.4478Z" fill="#FFF5FA"/>
<path d="M10.1087 16.0752C7.26097 14.3242 6.96433 12.7421 6.22272 12.9111C5.48111 13.0801 5.7036 14.0784 6.62319 15.4148C7.54278 16.7511 8.87768 17.7034 9.96043 18.4099C11.0432 19.1165 11.3695 19.2854 10.9542 19.9152C10.5537 20.5449 10.0346 20.5449 8.6552 19.5773C7.29064 18.625 6.40071 17.8263 6.17823 18.8707C5.95574 19.9152 8.03225 21.8352 10.5537 23.2944C13.0752 24.7535 15.4483 24.9686 15.9971 24.8303C16.5459 24.6921 16.6646 23.7091 15.7746 23.1561C14.8847 22.6185 13.5498 22.6492 12.9565 22.0656C12.3632 21.4819 12.4819 20.1456 13.7278 20.3145C14.9885 20.4835 18.0588 21.528 18.5482 20.4835C19.0229 19.439 17.9401 18.5635 16.8129 18.3946C14.7809 18.1181 12.9565 17.8262 10.1087 16.0752Z" fill="#FFF5FA"/>
<path d="M49.1914 28.9621C49.1766 28.9621 49.1469 28.9621 49.1321 28.9468C49.1173 28.9314 47.3671 27.4415 44.9346 24.1698C42.5021 20.9136 40.9151 18.287 40.8854 18.2563C40.8558 18.1949 40.8558 18.1181 40.9003 18.0873C40.9447 18.0413 41.0041 18.0566 41.0337 18.1181C41.0486 18.1488 42.6356 20.76 45.0681 24.0162C47.4857 27.2572 49.2211 28.7317 49.2359 28.7471C49.2804 28.7932 49.2952 28.87 49.2656 28.916C49.2508 28.9314 49.2211 28.9621 49.1914 28.9621Z" fill="#0F0D5F"/>
<path d="M48.9984 28.6704L49.2209 26.9193C49.2505 26.7043 49.4137 26.5661 49.5768 26.6121C49.7845 26.6736 49.9328 26.7811 49.9625 26.8425C50.1553 27.2112 49.5472 28.3171 49.3544 28.7932C49.3247 28.8854 49.2357 28.9315 49.1467 28.9161H49.117C49.0429 28.9008 48.9835 28.7932 48.9984 28.6704Z" fill="#D33839"/>
<path d="M24.7184 28.5936H16.7832L18.5186 2.74292L24.7184 28.5936Z" fill="url(#paint1_linear_724_2109)"/>
<path d="M14.2024 28.5934C14.2024 28.5934 13.6239 28.5934 12.7043 28.5934H1.83235C0.868264 28.5934 -0.60012 28.4398 0.260145 26.3048C1.10558 24.2005 2.97443 25.0453 3.03376 25.0606C3.00409 25.0146 2.52946 23.924 3.67154 23.0792C4.82845 22.2191 6.17818 23.2789 6.17818 23.2789C6.17818 23.2789 5.80737 21.5432 7.55756 20.7599C9.32259 19.9919 11.6957 21.5279 12.6005 22.5416C14.8402 25.076 14.2024 28.5934 14.2024 28.5934Z" fill="url(#paint2_linear_724_2109)"/>
<path d="M12.7043 28.5934H3.55284C3.40452 28.3477 3.28586 27.9483 3.55284 27.4261C3.9978 26.5506 4.9174 26.996 4.9174 26.996C4.9174 26.996 4.62076 25.7365 5.49585 25.1375C6.37095 24.5384 7.26088 25.3064 7.26088 25.3064C7.26088 25.3064 7.06806 23.325 9.69335 23.1714C12.2297 23.0485 13.3866 27.165 12.7043 28.5934Z" fill="url(#paint3_linear_724_2109)"/>
<path d="M1.09112 28.6396C1.06145 28.6396 1.03179 28.6243 1.00212 28.6089C0.957626 28.5628 0.957626 28.486 1.00212 28.44C1.01695 28.4246 2.94514 26.3357 5.31828 23.5094C7.69142 20.6986 9.15981 18.3639 9.17464 18.3485C9.2043 18.2871 9.27846 18.2717 9.33779 18.3178C9.39712 18.3485 9.41195 18.4253 9.36746 18.4868C9.35262 18.5175 7.86941 20.8522 5.49626 23.6784C3.12312 26.5046 1.19494 28.5936 1.16528 28.6089C1.15044 28.6243 1.12078 28.6396 1.09112 28.6396Z" fill="#0F0D5F"/>
<path d="M1.26909 28.5013L1.03177 26.8578C0.987278 26.5967 0.749965 26.4278 0.497819 26.4892C0.275336 26.5353 0.17151 26.6582 0.141846 26.735C0.0231883 27.1497 0.601643 28.1481 0.824126 28.6396C0.868622 28.7471 0.972448 28.7932 1.0911 28.7625C1.20976 28.7471 1.28392 28.6242 1.26909 28.5013Z" fill="#D33839"/>
<path d="M18.5182 3.00394C18.4886 3.00394 18.4441 3.00394 18.4144 2.97322C18.2957 2.91178 18.2364 2.77355 18.2957 2.65067L19.3785 0.346689C19.4378 0.22381 19.5713 0.16237 19.69 0.22381C19.8086 0.285249 19.8679 0.423487 19.8086 0.546366L18.7259 2.85034C18.6962 2.9425 18.6072 3.00394 18.5182 3.00394Z" fill="#0F0D5F"/>
<path d="M18.5036 3.03464C18.4146 3.03464 18.3256 2.98856 18.2811 2.8964L17.139 0.346661C17.0797 0.223782 17.139 0.0701825 17.2577 0.0241029C17.3763 -0.0373365 17.5246 0.0241034 17.5691 0.146982L18.7112 2.69672C18.7705 2.8196 18.7112 2.9732 18.5925 3.01928C18.5629 3.03464 18.5332 3.03464 18.5036 3.03464Z" fill="#0F0D5F"/>
<path d="M32.3122 5.04684C32.2825 5.04684 32.238 5.04685 32.2083 5.03149C32.0897 4.97005 32.0304 4.83181 32.0897 4.70893L33.0241 2.69679C33.0834 2.57391 33.2169 2.51247 33.3356 2.57391C33.4542 2.63535 33.5136 2.77358 33.4542 2.89646L32.5198 4.90861C32.4902 4.98541 32.4012 5.04684 32.3122 5.04684Z" fill="#0F0D5F"/>
<path d="M32.253 4.98525C32.164 4.98525 32.075 4.93917 32.0305 4.84701L31.0516 2.60447C30.9923 2.48159 31.0516 2.32799 31.1703 2.28192C31.2889 2.22048 31.4372 2.28192 31.4817 2.40479L32.4606 4.64734C32.52 4.77021 32.4607 4.92381 32.342 4.96989C32.3123 4.98525 32.2827 4.98525 32.253 4.98525Z" fill="#0F0D5F"/>
<path d="M18.519 2.74292V28.5936H11.8C11.8 28.5936 11.6221 27.0576 10.8063 23.9702C10.0943 21.313 9.13025 18.4714 9.10059 18.3946C9.10059 18.3946 9.99051 17.2273 11.3106 15.2612C12.0225 14.2014 12.868 12.9111 13.7579 11.4366C16.6057 6.72112 18.519 2.74292 18.519 2.74292Z" fill="#FD6D47"/>
<path d="M18.5185 20.6678V28.5935H11.7995C11.7995 28.5935 11.6216 27.0575 10.8058 23.9702C10.0939 21.3129 9.12976 18.4713 9.1001 18.3945C9.17426 18.4253 11.4436 19.5926 14.0392 20.1148C16.4717 20.6063 18.1774 20.6678 18.5185 20.6678Z" fill="#F94E33"/>
<path d="M18.5185 2.74292V17.258C15.1664 17.0737 12.7339 16.0599 11.3101 15.2766C12.022 14.2167 12.8674 12.9265 13.7574 11.452C16.6051 6.72112 18.5185 2.74292 18.5185 2.74292Z" fill="#FF8A61"/>
<path d="M30.3397 18.1642C30.31 18.241 29.4349 20.4989 28.7527 23.6323C28.0704 26.8272 27.9072 28.6089 27.9072 28.6089H24.7035C24.7035 28.6089 23.5021 25.8442 21.9744 20.6679C21.7074 19.777 21.4256 18.794 21.1438 17.7495C21.0993 17.5805 21.0548 17.4116 21.0103 17.2426C18.4295 7.55056 18.5036 2.74292 18.5036 2.74292C18.5036 2.74292 22.2265 8.76398 25.8159 13.0494C26.7206 14.1399 27.4474 15.0154 28.0555 15.6759C29.8799 17.6573 30.3397 18.1642 30.3397 18.1642Z" fill="#FD6D47"/>
<path d="M30.3398 18.1643C30.3101 18.2411 29.4647 20.4529 28.7972 23.6017C28.1149 26.7965 28.0704 28.609 28.0704 28.609H24.7184C24.7184 28.609 23.517 25.8442 21.9893 20.668C22.6715 20.6065 23.7691 20.4683 25.2968 20.1611C28.0111 19.5928 30.2656 18.195 30.3398 18.1643Z" fill="#F94E33"/>
<path d="M28.0704 15.6913C26.6168 16.2596 24.0954 17.0583 21.0103 17.2426C18.4295 7.55056 18.5036 2.74292 18.5036 2.74292C18.5036 2.74292 22.2265 8.76398 25.8159 13.0494C26.7503 14.1399 27.4771 15.0001 28.0704 15.6913Z" fill="#FF8A61"/>
<path d="M41.3749 18.3486C41.3452 18.4254 40.4108 21.6049 39.6395 24.2467C38.8534 26.9194 38.6755 28.655 38.6755 28.655L27.9221 28.5936C27.9221 28.5936 28.4858 24.984 28.9604 22.4189C29.3312 20.4068 29.969 18.9322 30.2211 18.3946C30.2211 18.3793 30.236 18.3793 30.236 18.3639C30.2805 18.2718 30.3101 18.2103 30.325 18.1796C30.325 18.1642 30.3398 18.1642 30.3398 18.1642C30.3398 18.1642 29.3609 17.1198 28.0853 15.6913C26.6021 14.0324 24.7332 11.8974 23.5615 10.3307C21.396 7.4277 18.5186 2.7583 18.5186 2.7583C18.5186 2.7583 21.0994 4.30965 25.9643 5.12372C30.8292 5.93779 32.3866 4.87796 32.3866 4.87796C32.3866 4.87796 33.8253 8.61041 36.9994 12.7115C38.008 14.0017 38.8089 15.0462 39.4467 15.8756C40.8113 17.6113 41.3749 18.3486 41.3749 18.3486Z" fill="#F46742"/>
<path d="M41.3751 18.3486C41.3603 18.4254 40.411 21.6049 39.6398 24.2468C38.8537 26.9194 38.6757 28.6551 38.6757 28.6551L27.9224 28.5937C27.9224 28.5937 28.486 24.9841 28.9606 22.419C29.3314 20.4068 29.9692 18.9323 30.2213 18.3947C30.2213 18.3793 30.2362 18.3793 30.2362 18.364C30.2807 18.2718 30.3103 18.2104 30.3252 18.1797C30.3252 18.1643 30.34 18.1643 30.34 18.1643C30.34 18.1643 33.4844 19.1627 36.8365 19.1627C40.1441 19.1473 41.3455 18.364 41.3751 18.3486Z" fill="#F0492F"/>
<path d="M39.4469 15.8449C39.0316 16.2442 38.2752 16.7358 36.9699 16.9354C36.8661 16.9508 36.7623 16.9662 36.6585 16.9815C36.2432 17.0276 35.7685 17.0583 35.2346 17.0276C34.2408 16.9969 33.2767 16.8894 32.4165 16.7511C32.283 16.7358 32.1495 16.705 32.016 16.6897C29.7467 16.2903 28.1448 15.7066 28.0706 15.6759C26.5874 14.0171 24.7186 11.882 23.5468 10.3153C21.3813 7.41232 18.5039 2.74292 18.5039 2.74292C18.5039 2.74292 19.9723 3.61843 22.7607 4.40179C22.8646 4.43251 22.9832 4.46323 23.087 4.49395C23.9325 4.72434 24.8817 4.92402 25.9348 5.10834C26.4243 5.18514 26.8841 5.24658 27.3142 5.30802C27.418 5.32338 27.5219 5.32338 27.6108 5.33874C31.1557 5.67666 32.3571 4.86258 32.3571 4.86258C32.3571 4.86258 33.7959 8.59503 36.9699 12.6961C38.0082 13.9863 38.8091 15.0308 39.4469 15.8449Z" fill="#F7804C"/>
<path d="M34.6566 18.9937L34.5972 19.0859C34.5824 19.1166 33.0843 21.651 32.2092 23.786C31.3193 25.9364 30.4887 28.5322 30.4739 28.5629L30.2514 28.4861C30.2662 28.4554 31.0968 25.8442 32.0016 23.6938C32.8025 21.7585 34.0781 19.516 34.3599 19.0398C34.1374 18.8401 33.4255 18.1797 32.0461 16.6897C31.3342 15.9218 30.4294 14.9387 29.3318 13.6946C26.2171 10.1618 23.6066 5.78424 22.8057 4.40186C22.9095 4.43258 23.0281 4.4633 23.132 4.49402C24.0516 6.07608 26.5434 10.1772 29.5098 13.5256C30.726 14.908 31.6901 15.9678 32.4317 16.7512C33.9743 18.3793 34.5824 18.9016 34.5824 18.9169L34.6566 18.9937Z" fill="#EA3D2A"/>
<path d="M39.3135 19.0091L39.2393 19.1166C39.2245 19.1473 37.326 21.9736 36.2284 24.3083C35.1308 26.6276 34.5969 28.5322 34.5969 28.5476L34.3595 28.4861C34.3595 28.4708 34.8935 26.5354 36.0059 24.2007C36.9997 22.1118 38.6312 19.6081 38.9723 19.0859C38.7202 18.8862 37.9638 18.2718 36.6585 16.997C35.8131 16.1829 34.7452 15.077 33.4251 13.6485C30.3252 10.2693 28.0855 6.61369 27.3291 5.30811C27.4329 5.32347 27.5368 5.32347 27.6257 5.33883C28.4563 6.75193 30.6218 10.254 33.5883 13.4796C34.9677 14.9848 36.0949 16.1215 36.9552 16.9509C38.468 18.4101 39.1948 18.9323 39.1948 18.9477L39.3135 19.0091Z" fill="#EA3D2A"/>
<path d="M26.8396 22.8027L24.7186 28.6087C24.7186 28.6087 23.0722 24.7841 21.1589 17.7647C18.4446 7.73467 18.5188 2.77344 18.5188 2.77344C18.5188 2.77344 18.9192 6.383 21.9153 12.5116C24.1401 17.0735 25.8013 19.7614 26.6171 21.0056C26.9731 21.5125 27.0621 22.1883 26.8396 22.8027Z" fill="#C82C2C"/>
<path d="M37.6372 26.0896C37.0884 27.8099 36.2282 28.5011 36.2282 28.5011H28.9308C28.9308 28.5011 27.581 26.4736 28.0408 24.2003C28.5006 21.9271 29.88 21.5123 30.4288 21.8195C30.9776 22.1421 31.8082 21.2819 31.7192 19.6384C31.6302 17.9949 31.1111 17.872 31.6005 17.4266C32.09 16.9812 34.4186 18.1485 35.0564 20.4371C35.6942 22.7104 35.2048 23.5706 35.7832 23.6934C36.3617 23.8163 36.154 22.7104 36.7918 22.6797C37.4296 22.6336 38.2157 24.2925 37.6372 26.0896Z" fill="#FB9E46"/>
<path d="M36.5541 27.1342C36.2871 27.6718 35.9757 28.1326 35.679 28.4859H29.8203C29.3754 27.7639 28.6634 26.3048 28.9007 24.6459C29.2419 22.2497 30.3839 23.2942 31.4964 22.2498C32.6088 21.2053 31.9117 18.9935 32.2528 18.6402C32.5939 18.2869 34.181 19.0395 34.4925 21.1746C34.8188 23.3096 34.6704 24.4769 35.5307 24.6459C36.391 24.8148 36.3168 23.5553 36.8211 23.7397C37.3106 23.9393 37.3699 25.4753 36.5541 27.1342Z" fill="#FF923F"/>
<path d="M35.2939 27.1801C35.2346 27.7792 35.0566 28.1939 34.8786 28.4857H31.0667C30.7998 27.8713 30.4141 26.8269 30.4586 25.9053C30.5328 24.4768 31.8232 23.8931 32.0308 23.248C32.2385 22.6029 32.9949 22.7258 33.2174 23.5552C33.4399 24.3846 33.0542 24.953 33.514 25.1526C33.9738 25.3523 34.1518 24.784 34.5523 24.8147C34.9528 24.8608 35.4422 25.7977 35.2939 27.1801Z" fill="#FF5A20"/>
<path d="M31.6599 28.5933H27.8332C27.4624 28.5933 27.1509 28.2861 27.1509 27.8867C27.1509 27.5027 27.4475 27.1802 27.8332 27.1802H31.6599C32.0307 27.1802 32.3421 27.4874 32.3421 27.8867C32.3421 28.2707 32.0307 28.5933 31.6599 28.5933Z" fill="#C62929"/>
<path d="M27.8478 28.6087C28.2246 28.6087 28.5301 28.2923 28.5301 27.9021C28.5301 27.5119 28.2246 27.1956 27.8478 27.1956C27.471 27.1956 27.1655 27.5119 27.1655 27.9021C27.1655 28.2923 27.471 28.6087 27.8478 28.6087Z" fill="#D33839"/>
<path d="M30.221 27.9482H28.7081C28.6636 27.9482 28.6191 27.9022 28.6191 27.8561C28.6191 27.81 28.6636 27.7639 28.7081 27.7639H30.221C30.2655 27.7639 30.31 27.81 30.31 27.8561C30.31 27.9022 30.2803 27.9482 30.221 27.9482Z" fill="#D33839"/>
<path d="M32.0452 27.595H30.4137C30.3692 27.595 30.3247 27.5489 30.3247 27.5028C30.3247 27.4567 30.3692 27.4106 30.4137 27.4106H32.0452C32.0897 27.4106 32.1342 27.4567 32.1342 27.5028C32.1342 27.5489 32.1046 27.595 32.0452 27.595Z" fill="#D33839"/>
<path d="M31.5266 28.2095H30.4142C30.3697 28.2095 30.3252 28.1634 30.3252 28.1173C30.3252 28.0712 30.3697 28.0251 30.4142 28.0251H31.5266C31.5711 28.0251 31.6156 28.0712 31.6156 28.1173C31.6156 28.1634 31.5859 28.2095 31.5266 28.2095Z" fill="#D33839"/>
<path d="M36.8659 28.5933H33.0392C32.6684 28.5933 32.3569 28.2861 32.3569 27.8867C32.3569 27.5027 32.6536 27.1802 33.0392 27.1802H36.8659C37.2367 27.1802 37.5482 27.4874 37.5482 27.8867C37.5482 28.2707 37.2515 28.5933 36.8659 28.5933Z" fill="#C62929"/>
<path d="M33.0543 28.6087C33.4312 28.6087 33.7366 28.2923 33.7366 27.9021C33.7366 27.5119 33.4312 27.1956 33.0543 27.1956C32.6775 27.1956 32.3721 27.5119 32.3721 27.9021C32.3721 28.2923 32.6775 28.6087 33.0543 28.6087Z" fill="#D33839"/>
<path d="M35.4422 27.9482H33.9293C33.8848 27.9482 33.8403 27.9022 33.8403 27.8561C33.8403 27.81 33.8848 27.7639 33.9293 27.7639H35.4422C35.4867 27.7639 35.5312 27.81 35.5312 27.8561C35.5312 27.9022 35.4867 27.9482 35.4422 27.9482Z" fill="#D33839"/>
<path d="M37.2518 27.595H35.6202C35.5757 27.595 35.5312 27.5489 35.5312 27.5028C35.5312 27.4567 35.5757 27.4106 35.6202 27.4106H37.2518C37.2963 27.4106 37.3408 27.4567 37.3408 27.5028C37.3408 27.5489 37.3111 27.595 37.2518 27.595Z" fill="#D33839"/>
<path d="M36.7327 28.2095H35.6202C35.5757 28.2095 35.5312 28.1634 35.5312 28.1173C35.5312 28.0712 35.5757 28.0251 35.6202 28.0251H36.7327C36.7772 28.0251 36.8216 28.0712 36.8216 28.1173C36.8216 28.1634 36.792 28.2095 36.7327 28.2095Z" fill="#D33839"/>
<path d="M30.1023 19.2699C30.4381 19.2699 30.7104 18.9673 30.7104 18.594C30.7104 18.2208 30.4381 17.9182 30.1023 17.9182C29.7664 17.9182 29.4941 18.2208 29.4941 18.594C29.4941 18.9673 29.7664 19.2699 30.1023 19.2699Z" fill="#FFBB71"/>
<path d="M32.7428 16.7662C32.8984 16.7662 33.0246 16.6287 33.0246 16.4591C33.0246 16.2894 32.8984 16.1519 32.7428 16.1519C32.5871 16.1519 32.4609 16.2894 32.4609 16.4591C32.4609 16.6287 32.5871 16.7662 32.7428 16.7662Z" fill="#FFBB71"/>
<path d="M28.1447 20.0839C28.284 20.0839 28.3969 19.9533 28.3969 19.7921C28.3969 19.6309 28.284 19.5002 28.1447 19.5002C28.0055 19.5002 27.8926 19.6309 27.8926 19.7921C27.8926 19.9533 28.0055 20.0839 28.1447 20.0839Z" fill="#FFBB71"/>
<path d="M15.7599 28.6087L14.8255 20.2837V20.253C14.8403 20.2069 16.1307 15.476 16.4719 13.8325C16.8872 11.8204 17.7771 6.58269 18.1924 4.18655C17.3322 6.45981 15.4336 11.4518 14.6624 13.2949C13.9949 14.877 11.9481 19.0395 11.7404 19.485L13.2385 28.5319L13.0012 28.578L11.4883 19.4389L11.5031 19.4082C11.5328 19.3621 13.7428 14.8617 14.4399 13.2028C15.4485 10.7913 18.3704 3.03456 18.4001 2.95776L18.6374 3.0192C18.6225 3.096 17.258 11.2674 16.724 13.894C16.3977 15.4914 15.1815 19.9304 15.0777 20.299L16.0121 28.578L15.7599 28.6087Z" fill="#EA3D2A"/>
</g>
<defs>
<linearGradient id="paint0_linear_724_2109" x1="20.7914" y1="21.5023" x2="37.589" y2="51.4651" gradientUnits="userSpaceOnUse">
<stop stop-color="#DDDCFE"/>
<stop offset="1" stop-color="#B1AFE9"/>
</linearGradient>
<linearGradient id="paint1_linear_724_2109" x1="20.7478" y1="19.3588" x2="20.7478" y2="32.981" gradientUnits="userSpaceOnUse">
<stop stop-color="#0D1748"/>
<stop offset="1" stop-color="#1B237E"/>
</linearGradient>
<linearGradient id="paint2_linear_724_2109" x1="9.80812" y1="30.5005" x2="4.39732" y2="22.7543" gradientUnits="userSpaceOnUse">
<stop stop-color="#DDDCFE"/>
<stop offset="1" stop-color="#F7F9FF"/>
</linearGradient>
<linearGradient id="paint3_linear_724_2109" x1="6.86477" y1="24.8033" x2="12.9418" y2="35.6432" gradientUnits="userSpaceOnUse">
<stop stop-color="#DDDCFE"/>
<stop offset="1" stop-color="#B1AFE9"/>
</linearGradient>
</defs>
</svg>
