<svg width="19" height="19" viewBox="0 0 19 19" fill="none" xmlns="http://www.w3.org/2000/svg">
<path d="M16.891 7.18482C17.3311 7.18482 17.719 7.34445 18.0453 7.62593C18.3263 7.93285 18.5001 8.31732 18.5001 8.74543V10.806C18.5001 11.2521 18.3369 11.6321 18.0461 11.9256C17.7374 12.2127 17.3487 12.3909 16.9152 12.3909H13.4243C12.842 12.3909 12.4152 12.8727 12.4152 13.4V16.9151C12.4152 17.3612 12.252 17.7412 11.9613 18.0347C11.6525 18.3218 11.2638 18.5 10.8304 18.5H8.76979C8.32371 18.5 7.94374 18.3368 7.65022 18.046C7.36311 17.7372 7.18494 17.3485 7.18494 16.9151V13.4242C7.18494 12.8418 6.70308 12.4151 6.17585 12.4151H2.68495C2.23887 12.4151 1.8589 12.2519 1.56538 11.9611C1.27827 11.6524 1.1001 11.2637 1.1001 10.8303V8.76967C1.1001 8.3236 1.26331 7.94363 1.55407 7.6501C1.86284 7.36299 2.25153 7.18482 2.68495 7.18482H6.15161C6.73399 7.18482 7.1607 6.70296 7.1607 6.17573V2.68482C7.1607 2.23875 7.32391 1.85878 7.61468 1.56525C7.92345 1.27814 8.31214 1.09998 8.74555 1.09998H10.8062C11.2522 1.09998 11.6322 1.26318 11.9257 1.55394C12.2128 1.86272 12.391 2.25141 12.391 2.68482V6.17573C12.391 6.75811 12.8729 7.18482 13.4001 7.18482H16.891Z" fill="#573353" stroke="#FC9D45"/>
</svg>
